<?xml version="1.0" encoding="UTF-8" standalone="no"?>
<!DOCTYPE svg PUBLIC "-//W3C//DTD SVG 1.1//EN" "http://www.w3.org/Graphics/SVG/1.1/DTD/svg11.dtd">
<!-- Created with Vectornator (http://vectornator.io/) -->
<svg height="100%" stroke-miterlimit="10" style="fill-rule:nonzero;clip-rule:evenodd;stroke-linecap:round;stroke-linejoin:round;" version="1.1" viewBox="0 0 140.369 113.246" width="100%" xml:space="preserve" xmlns="http://www.w3.org/2000/svg" xmlns:vectornator="http://vectornator.io" xmlns:xlink="http://www.w3.org/1999/xlink">
<defs/>
<g id="레이어-1" vectornator:layerName="레이어 1">
<g opacity="1">
<path d="M35.7154 18.4698C36.5524 30.188 37.0478 34.017 37.444 36.654C46.9262 39.4125 60.7186 42.3859 75.475 42.3277C85.4477 42.2885 93.2909 40.9009 99.4963 39.1209C100.425 35.3513 101.159 29.0773 101.159 29.0773M48.142 2.28751C35.9324 16.9926 31.0023 25.8806 30.8668 26.2072C30.691 26.6311 30.6849 26.6772 30.9328 26.9855C31.219 27.3414 36.6686 27.9124 36.6686 27.9124" fill="none" opacity="1" stroke="#03070a" stroke-linecap="butt" stroke-linejoin="round" stroke-width="0.5"/>
<path d="M48.0883 2.31249C48.0883 2.31249 61.2156 22.1201 68.6938 29.8871C68.6938 29.8871 94.2184 32.0805 112.973 27.2004C112.973 27.2004 110.308 22.7316 103.119 15.7117C103.119 15.7117 75.3888 3.66654 48.2218 2.26128L48.0883 2.31249Z" fill="none" opacity="1" stroke="#03070a" stroke-linecap="butt" stroke-linejoin="round" stroke-width="0.5"/>
<path d="M62.0783 21.913C62.0783 21.913 62.8978 26.0396 61.647 41.5113" fill="none" opacity="1" stroke="#03070a" stroke-linecap="butt" stroke-linejoin="round" stroke-width="0.5"/>
<path d="M118.948 31.1413C116.772 31.3224 111.043 36.0271 99.4963 39.3388C93.2907 41.1186 85.4478 42.5063 75.475 42.5456C60.7187 42.6037 48.4525 39.9526 38.9704 37.1941C24.6357 33.0239 16.7352 28.6062 16.7352 32.9251C16.7353 40.101 18.1756 46.9355 20.7898 53.1533C23.404 59.3711 27.1907 64.9751 31.8651 69.6776C36.5393 74.3801 42.1049 78.1865 48.2856 80.8164C54.4664 83.4462 61.263 84.9015 68.3957 84.9015C75.5284 84.9015 82.3252 83.4462 88.5058 80.8164C94.6866 78.1865 100.252 74.3801 104.926 69.6776C109.601 64.9751 113.381 59.3711 115.995 53.1533C118.609 46.9354 120.056 40.101 120.056 32.9251C120.056 31.5797 119.72 31.077 118.948 31.1413Z" fill="none" opacity="1" stroke="#03070a" stroke-linecap="butt" stroke-linejoin="round" stroke-width="0.5"/>
<g opacity="1">
<path d="M64.1562 88.875C61.6484 89.3226 59.5308 91.6925 57.8125 93.3438C56.2412 94.8537 54.5537 96.2276 52.9375 97.6875C50.0995 98.7296 47.2582 99.7544 44.4375 100.844C44.3087 100.893 44.2628 101.027 44.3125 101.156C44.3622 101.285 44.4962 101.362 44.625 101.312C47.016 100.389 49.4362 99.5336 51.8438 98.6562C51.0188 99.369 50.158 100.056 49.3438 100.781C48.9859 101.1 48.4885 101.221 48.4375 101.781C48.34 102.852 50.4651 102.441 51 102.312C51.2006 102.264 51.4567 102.193 51.6562 102.125C53.4833 101.504 55.302 100.819 57.1562 100.281C58.365 99.9305 59.5952 99.6631 60.8438 99.5C61.3287 99.4366 61.8019 99.5281 62.2812 99.4688C62.3557 99.4595 62.5025 99.417 62.5938 99.4062C62.5842 99.4489 62.5768 99.4682 62.5625 99.5C62.477 99.6896 62.2838 99.8448 62.125 99.9688C61.6921 100.307 61.2308 100.608 60.75 100.875C60.4173 101.06 60.0259 101.265 59.6875 101.438C59.3316 101.619 59.0029 101.801 58.6562 102C58.2327 102.243 57.6478 102.272 57.7188 102.938C57.7922 103.627 58.5858 103.74 59.125 103.688C60.3988 103.564 61.7 103.221 62.9375 102.906C63.0713 102.872 63.1591 102.728 63.125 102.594C63.0909 102.46 62.9463 102.372 62.8125 102.406C62.156 102.573 61.5098 102.749 60.8438 102.875C60.4631 102.947 60.0669 103.016 59.6875 103.094C59.5677 103.118 57.7832 103.401 58.25 102.719C58.3339 102.596 58.5961 102.582 58.7188 102.531C58.9187 102.448 59.2986 102.216 59.4062 102.156C60.2995 101.66 61.1999 101.26 62.0312 100.656C62.1627 100.561 62.3098 100.444 62.4375 100.344C62.6454 100.18 63.6138 99.0263 62.75 98.9062C62.5297 98.8756 62.3421 98.9736 62.125 98.9688C60.8533 98.9403 59.6203 99.1219 58.375 99.4062C56.0195 99.9442 53.7819 100.88 51.5 101.656C50.8259 101.886 50.1172 102.047 49.4062 101.969C49.3381 101.961 48.9236 101.98 48.9375 101.812C48.9644 101.49 49.4741 101.345 49.6875 101.156C49.8812 100.985 50.0567 100.828 50.25 100.656C51.2033 99.8087 52.211 99.0135 53.1562 98.1562C53.3233 98.0949 53.4893 98.0303 53.6562 97.9688C55.8077 97.1751 57.9763 96.4559 59.9375 95.25C61.8101 94.0986 63.8077 92.8398 65.0938 91C65.749 90.0627 65.5754 88.6218 64.1562 88.875ZM64.625 89.3438C65.6411 89.5575 64.4623 91.0068 64.1875 91.3125C63.2216 92.3872 62.1642 93.2001 60.9688 94C60.2854 94.4572 59.5776 94.9726 58.8438 95.3438C57.3764 96.0859 55.7959 96.6232 54.25 97.1875C55.2959 96.2772 56.3625 95.3848 57.375 94.4375C58.6419 93.2522 59.846 91.9736 61.2188 90.9062C61.4761 90.7062 61.7334 90.5314 62 90.3438C62.4994 89.9922 63.9776 89.2076 64.625 89.3438Z" fill="#03070a" stroke="none"/>
</g>
<g opacity="1">
<path d="M15.0312 71.0312C14.9085 70.9681 14.7819 71.0335 14.7188 71.1562C14.6556 71.279 14.6897 71.4056 14.8125 71.4688C17.4984 72.8498 20.1235 74.3535 22.75 75.8438C23.5255 76.2838 24.3009 76.7238 25.0625 77.1875C25.2805 77.3202 25.5117 77.3756 25.7188 77.5C25.6489 77.5286 25.5985 77.5591 25.5312 77.5938C25.1341 77.5098 24.7362 77.4051 24.3438 77.3125C22.904 76.9728 21.4341 76.5365 19.9688 77.0312C18.9758 77.3665 18.0099 78.184 18.0625 79.3438C18.1133 80.4627 19.9653 81.2245 20.7812 81.5938C21.5995 81.964 22.0107 82.0905 22.875 82.3438C23.6675 82.5759 24.6144 82.7079 25.5312 82.6875C26.0727 83.1238 26.6426 83.5077 27.4375 83.9688C28.646 84.6697 29.3975 85.0918 30.5938 85.8125C31.1107 86.124 31.6194 86.4203 32.125 86.75C33.3008 87.5169 33.9808 88.0095 35.0625 88.9062C35.9596 89.65 36.8217 90.4351 37.6875 91.2188C35.9846 90.7476 34.1587 90.603 32.5 91.2812C31.8724 91.5379 31.0179 91.8547 30.9062 92.625C30.6502 94.3918 33.9712 94.508 35.0312 94.4688C35.3057 94.4586 35.6642 94.4313 35.9375 94.4062C36.238 94.3787 36.5434 94.3733 36.8438 94.3438C37.4269 94.2864 38.0085 94.2161 38.5938 94.1875C39.2198 94.1569 39.848 94.217 40.4688 94.2812C40.0377 94.2706 39.7026 94.1806 39.2812 94.3438C38.1902 94.7663 36.427 96.1945 36.5312 97.5C36.5938 98.2827 37.1601 99.0602 37.6562 99.625C39.2311 101.418 42.1965 102.104 44.4062 101.375C44.5373 101.332 44.606 101.194 44.5625 101.062C44.5191 100.931 44.3811 100.863 44.25 100.906C41.9251 101.68 39.1113 100.764 37.6562 98.8125C37.3762 98.4369 37.0721 97.9475 37.0312 97.4688C36.9739 96.7969 37.522 96.2534 37.9688 95.8438C38.4447 95.4073 39.0413 94.9066 39.6875 94.75C39.9437 94.6879 40.1802 94.7767 40.4375 94.7812C40.7007 94.7859 41.6403 94.4106 41.1875 93.9688C40.7975 93.5883 39.0174 93.6653 38.5625 93.6875C36.8297 93.7721 35.077 94.1458 33.3438 93.875C32.7731 93.7858 31.2783 93.6257 31.4062 92.7188C31.4977 92.0705 32.6515 91.7322 33.1562 91.5625C34.7594 91.0235 36.587 91.2881 38.1562 91.8125C38.341 91.8742 38.5024 92.0118 38.6875 92.0938C38.8465 92.2365 38.9966 92.3896 39.1562 92.5312C39.2486 92.6132 40.1473 93.9183 40.4688 93.3125C40.8738 92.5494 39.453 91.8381 38.7188 91.5312C38.0583 90.9313 37.4137 90.307 36.75 89.7188C34.8971 88.0764 32.9652 86.6534 30.8438 85.375C29.2939 84.4411 27.7123 83.5798 26.1562 82.6562C26.9701 82.5535 27.7436 82.3129 28.3438 81.7812C28.572 81.579 28.7552 81.3296 28.8438 81.0312C29.0153 80.4535 28.7523 79.9528 28.5312 79.4375C28.3883 79.1043 28.0111 78.5435 27.5938 78.0625C27.5834 78.0301 27.6105 77.9994 27.5938 77.9688C27.5377 77.8659 27.4022 77.8946 27.3125 77.8438C27.0275 77.562 26.7411 77.2354 26.5 77.1875C26.3959 77.1668 26.2997 77.3013 26.1875 77.3125C25.8999 77.1358 25.6008 76.9568 25.3125 76.7812C24.5465 76.3149 23.78 75.8488 23 75.4062C22.123 74.9086 21.2539 74.4006 20.375 73.9062C18.615 72.9162 16.8271 71.9547 15.0312 71.0312ZM21.0312 77.3125C22.1218 77.2214 23.2026 77.5655 24.25 77.8125C24.4286 77.8546 24.6008 77.9009 24.7812 77.9375C24.6398 78.0801 24.4911 78.2219 24.4062 78.4062C24.2119 78.8286 24.241 79.3283 24.2188 79.7812C24.1656 80.861 24.441 81.5326 24.875 82.0938C23.1866 81.997 21.5729 81.4345 20.0625 80.6875C19.5337 80.426 18.914 80.1154 18.625 79.5625C18.4937 79.3113 18.5924 79.0311 18.6875 78.7812C19.0666 77.7854 19.984 77.4 21.0312 77.3125ZM25.3438 78.0625C25.6193 78.12 25.8871 78.171 26.1562 78.25C26.4865 78.347 26.728 78.6579 27.0625 78.75C27.1642 78.778 27.201 78.6819 27.2812 78.6562C27.6029 79.0332 27.952 79.377 28.1562 79.8438C28.302 80.1766 28.4857 80.5326 28.375 80.9062C28.0779 81.9088 26.5552 82.1354 25.7188 82.1875C25.6978 82.1888 25.6772 82.1864 25.6562 82.1875C25.4232 81.9893 25.1485 81.833 25 81.5625C24.6998 81.0158 24.6884 80.3896 24.7188 79.7812C24.7379 79.3982 24.7121 78.9522 24.875 78.5938C24.9774 78.3685 25.1447 78.2023 25.3438 78.0625Z" fill="#03070a" stroke="none"/>
</g>
<g opacity="1">
<path d="M2.4375 40.625C2.16946 40.6259 1.59521 40.603 1.40625 40.9062C1.11617 41.3717 1.78956 42.0542 2 42.4062C2.80936 43.76 3.82147 45.0307 4.8125 46.25C5.0435 46.5342 5.29787 46.8115 5.53125 47.0938C5.76366 47.3748 5.98876 47.6544 6.21875 47.9375C9.84582 52.4014 12.2423 57.6948 14.4375 62.9688C14.896 64.0702 15.3485 65.1955 15.8438 66.2812C15.6674 66.0614 15.4846 65.8468 15.3125 65.625C14.2612 64.2698 13.2447 63.0266 11.9688 61.875C11.13 61.118 9.86279 60.4625 8.8125 61.25C8.10655 61.7793 8.62598 63.8269 8.8125 64.5C9.6728 67.6046 11.9511 69.8082 14.6562 71.4062C14.7751 71.4765 14.9298 71.4314 15 71.3125C15.0702 71.1936 15.0251 71.039 14.9062 70.9688C12.3133 69.4379 10.1062 67.3222 9.28125 64.3438C9.10072 63.692 8.98144 63.0206 8.96875 62.3438C8.96499 62.1434 8.92779 61.7911 9.125 61.6562C10.0067 61.0534 10.941 61.6328 11.625 62.25C12.0378 62.6225 12.4899 62.974 12.875 63.375C13.2509 63.7665 13.5645 64.2034 13.9062 64.625C14.2504 65.0496 14.5713 65.5057 14.9062 65.9375C15.0024 66.0615 15.123 66.157 15.2188 66.2812C15.4364 66.5637 16.2558 67.939 16.6562 68C16.6763 68.0031 16.8874 67.9597 16.875 67.9375C16.8302 67.841 16.7737 67.7476 16.7188 67.6562C16.9619 67.983 17.0674 67.6899 17 67.3438C16.9042 66.8516 16.5132 66.5048 16.3125 66.0625C15.8216 64.9805 15.3627 63.8779 14.9062 62.7812C12.9697 58.1288 10.8664 53.5008 7.9375 49.375C6.58933 47.4759 5.01983 45.7409 3.625 43.875C3.14146 43.2281 2.71633 42.5856 2.28125 41.9062C2.08837 41.6051 2.10598 41.6821 1.9375 41.375C1.903 41.3121 1.79506 41.1656 1.8125 41.1875C1.93785 41.3451 2.23611 41.1261 2.4375 41.125C2.62305 41.124 2.78561 41.1265 2.96875 41.1562C3.71762 41.2781 4.44044 41.5918 5.125 41.9062C6.72196 42.6398 8.21317 43.8211 9.5 45C10.4711 45.8897 11.4194 46.8945 11.9375 48.125C11.9912 48.2522 12.1228 48.3037 12.25 48.25C12.3772 48.1963 12.4599 48.0647 12.4062 47.9375C11.7369 46.3543 10.4142 45.1181 9.125 44.0312C7.81683 42.9284 6.39613 41.9153 4.8125 41.25C4.05604 40.9322 3.27196 40.6222 2.4375 40.625Z" fill="#03070a" stroke="none"/>
</g>
<g opacity="1">
<path d="M134.469 38.7812C134.334 38.8116 134.251 38.9591 134.281 39.0938C135.513 44.5649 136.324 50.0985 136.188 55.7188C136.134 57.9298 135.767 60.0848 135.469 62.25C135.187 61.4453 134.899 60.6384 134.594 59.8438C134.049 58.426 133.36 57.1342 132.562 55.8438C132.261 55.3558 131.82 54.919 131.531 54.4062C131.527 54.3989 131.535 54.3824 131.531 54.375C131.493 53.8931 131.444 53.5723 131.375 53.0938C131.31 52.6424 131.248 52.1627 131.125 51.7188C131.067 51.5082 130.817 51.3831 130.656 51.5938C130.606 51.6591 130.67 51.7648 130.656 51.8438C130.614 52.081 130.619 52.3468 130.625 52.5938C130.632 52.871 130.62 53.1313 130.656 53.4062C130.704 53.7632 130.871 53.9864 131 54.25C131.005 54.3122 131.026 54.3773 131.031 54.4375C131.069 54.9121 131.106 55.5868 131.125 56.0625C131.163 57.0055 131.39 59.608 130.469 60.25C130.386 60.3078 130.382 60.0622 130.344 59.9688C130.249 59.7403 130.164 59.5182 130.094 59.2812C129.79 58.2639 129.681 57.2128 129.656 56.1562C129.64 56.1056 129.648 55.9836 129.625 55.9688C129.333 55.7772 129.227 55.9616 129.188 56.1875C129.144 56.4395 129.183 56.7559 129.188 56.8438C129.199 57.0632 129.194 57.2816 129.219 57.5C129.237 57.6608 129.287 57.8103 129.312 57.9688C129.319 58.0413 129.337 58.1149 129.344 58.1875C129.391 58.7193 129.458 59.3427 129.5 59.875C129.564 60.6893 129.602 61.4961 129.625 62.3125C129.629 62.4505 129.737 62.5664 129.875 62.5625C130.013 62.5586 130.129 62.4193 130.125 62.2812C130.107 61.6443 130.041 61.0093 130 60.375C130.129 60.6007 130.306 60.8074 130.594 60.75C131.659 60.5373 131.577 58.5017 131.625 57.7188C131.645 57.3969 131.662 57.1978 131.656 56.875C131.652 56.5994 131.636 56.3067 131.625 56.0312C131.615 55.7773 131.578 55.535 131.562 55.2812C131.763 55.5384 131.962 55.7787 132.156 56.0938C132.671 56.9279 133.181 57.7651 133.594 58.6562C133.999 59.532 134.3 60.5316 134.625 61.4375C134.868 62.1143 135.059 62.8186 135.312 63.5C135.181 64.4437 135.112 65.3919 135 66.3438C134.524 70.4024 134.122 74.5074 133.938 78.5938C133.814 81.3184 133.764 84.0889 134.25 86.7812C134.432 87.7901 134.805 89.4578 136.156 89.3438C136.927 89.2787 137.511 87.8348 137.656 87.1875C138.164 84.9256 138.224 82.4914 138.375 80.1875C138.611 76.5906 138.58 72.7866 137.781 69.25C137.384 67.4924 136.727 65.7888 136.125 64.0938C136.033 63.8336 135.935 63.5733 135.844 63.3125C136.199 60.7941 136.625 58.2827 136.688 55.7188C136.825 50.0574 136.022 44.48 134.781 38.9688C134.751 38.834 134.603 38.7509 134.469 38.7812ZM135.688 64.6562C136.259 66.2248 136.918 67.7647 137.281 69.375C138.196 73.4307 138.092 77.7323 137.75 81.8438C137.668 82.831 137.599 83.7956 137.5 84.7812C137.356 86.2169 137.284 87.8073 136.156 88.8438C136.022 88.9673 135.406 88.5955 135.312 88.4375C134.872 87.6911 134.715 86.713 134.594 85.875C134.555 85.6046 134.527 85.3345 134.5 85.0625C134.068 80.6676 134.579 76.1937 134.969 71.8125C135.144 69.8421 135.291 67.8663 135.562 65.9062C135.62 65.49 135.628 65.0711 135.688 64.6562Z" fill="#03070a" stroke="none"/>
</g>
<g opacity="1">
<path d="M125.469 52.4688C124.835 52.8302 124.405 54.1005 124.312 54.5625C124.277 54.741 124.241 54.9131 124.219 55.0938C124.186 55.3618 124.17 55.7529 124.156 56.0312C124.037 58.3584 124.24 60.6996 124.156 63.0312C124.115 64.1724 123.911 65.3862 123.938 66.5625C123.703 67.3422 123.582 68.1502 123.281 68.9062C122.789 70.1438 122.317 71.3876 121.75 72.5938C121.586 72.9433 121.347 73.6948 120.875 73.75C120.427 73.8024 120.438 73.33 120.469 72.9688C120.626 72.5793 120.848 72.2179 120.969 71.8125C121.046 71.552 121.508 70.9705 121.219 70.6562C120.921 70.3335 120.481 70.74 120.375 71.0625C120.232 71.4985 119.949 72.4387 119.969 73.1875C119.582 74.0505 119.148 74.8606 118.75 75.7188C118.47 76.3212 118.201 76.9525 117.938 77.5625C118.025 76.8686 118.097 75.8612 117.719 75.7812C117.104 75.6515 116.779 76.6205 116.531 77C116.279 77.3859 116.023 77.7638 115.781 78.1562C115.539 78.5506 115.323 78.9729 115.094 79.375C114.787 79.9124 114.531 80.3355 114.312 80.8438C114.491 80.392 114.733 79.9549 114.781 79.4688C114.804 79.2397 114.869 78.608 114.469 78.5625C113.947 78.5033 113.515 79.4115 113.344 79.7188C112.585 81.0771 111.878 82.4819 111.188 83.875C111.074 84.1044 110.966 84.3316 110.844 84.5625C110.913 84.1211 110.956 83.6754 111 83.2188C111.036 82.849 111.23 81.9405 110.625 81.875C109.867 81.7929 109.044 83.8769 108.719 84.4375C108.552 84.7252 108.378 85.0207 108.219 85.3125C108.061 85.6007 107.895 85.893 107.75 86.1875C107.607 86.4781 107.482 86.7692 107.344 87.0625C107.285 87.1875 107.344 87.3475 107.469 87.4062C107.594 87.465 107.754 87.4062 107.812 87.2812C108.415 85.9985 109.127 84.785 109.781 83.5312C109.945 83.2164 110.17 82.5194 110.531 82.375C110.673 82.3184 110.443 83.7366 110.406 83.9062C110.307 84.3659 109.963 85.2151 110.312 85.6562C110.389 85.7531 110.42 85.6487 110.469 85.5938C110.449 85.637 110.427 85.6759 110.406 85.7188C110.405 85.7212 110.427 85.7151 110.438 85.7188C110.473 85.7305 110.523 85.75 110.531 85.75C110.928 85.7483 111.118 85.0648 111.25 84.8125C111.378 84.5661 111.533 84.3427 111.656 84.0938C112.343 82.7078 113.028 81.3215 113.781 79.9688C113.881 79.7901 114.01 79.6304 114.156 79.4688C114.134 79.9024 114.161 80.3432 113.969 80.75C113.853 80.9956 113.191 81.9464 113.938 82C114.535 82.0429 114.64 81.1807 114.844 80.8125C115.066 80.4107 115.304 80.0238 115.531 79.625C115.984 78.8316 116.47 78.0466 116.969 77.2812C117.144 77.0126 117.325 76.8114 117.5 76.5938C117.495 76.6344 117.472 76.678 117.469 76.7188C117.434 77.1053 117.158 78.4884 117.719 78.5938C118.208 78.6857 118.527 77.4456 118.656 77.1562C118.749 76.95 118.813 76.737 118.906 76.5312C119.317 75.6268 119.684 74.7125 120.094 73.8125C120.233 74.0999 120.478 74.3029 120.938 74.25C121.989 74.1289 122.779 71.6084 123.062 70.875C123.139 70.6779 123.423 69.8849 123.5 69.6875C123.738 69.0779 123.827 68.4293 124.031 67.8125C124.066 67.9266 124.102 68.0526 124.156 68.1562C124.373 68.5678 124.746 68.8022 125.219 68.8125C126.383 68.838 127.11 67.7533 127.656 66.875C128.069 66.2124 128.521 65.5498 128.906 64.875C129.364 64.0723 129.732 63.2428 130.125 62.4062C130.184 62.2813 130.156 62.1212 130.031 62.0625C129.906 62.0038 129.746 62.0625 129.688 62.1875C129.198 63.2303 129.04 63.6248 128.469 64.625C127.886 65.6455 127.157 67.1281 126.219 67.9062C125.836 68.2235 125.111 68.5768 124.719 68.0938C124.406 67.7082 124.363 67.1647 124.375 66.625C124.872 64.969 125.418 63.3312 125.781 61.625C126.198 59.6698 126.64 57.8296 126.594 55.8125C126.587 55.5273 126.572 55.2226 126.562 54.9375C126.553 54.6531 126.543 54.3781 126.531 54.0938C126.512 53.6054 126.673 52.7715 126.156 52.4688C125.905 52.3216 125.68 52.3483 125.469 52.4688ZM125.906 52.9062C126.088 53.2863 126.015 53.6846 126.031 54.0938C126.065 54.9436 126.084 55.8056 126.094 56.6562C126.113 58.2903 125.651 59.9437 125.312 61.5312C125.11 62.4831 124.762 63.3939 124.531 64.3438C124.71 62.1458 124.686 59.9492 124.625 57.75C124.59 56.5127 124.563 55.1109 125 53.9375C125.132 53.5838 125.313 53.2561 125.594 53C125.632 52.9649 125.882 52.855 125.906 52.9062Z" fill="#03070a" stroke="none"/>
</g>
<g opacity="1">
<path d="M99.75 80.1875C99.1508 79.8945 98.3422 80.7337 98 81.125C96.6806 82.6334 95.6249 84.4334 94.7188 86.2188C93.1913 89.2284 91.6568 92.353 90.6875 95.5938C90.6846 95.6036 90.6904 95.6152 90.6875 95.625C86.1117 98.9624 80.0342 100.129 74.7188 101.625C74.5858 101.662 74.5251 101.805 74.5625 101.938C74.5999 102.07 74.7108 102.131 74.8438 102.094C80.1025 100.613 85.939 99.4922 90.5312 96.3438C90.3146 97.1329 90.2309 97.9497 90.0625 98.75C89.9384 98.9146 89.6899 98.9907 89.625 99.1875C89.587 99.3027 89.7955 99.5238 89.875 99.7188C89.5845 101.244 89.182 102.745 88.9688 104.281C88.889 104.856 88.8244 105.456 88.75 106.031C88.6826 106.553 88.671 106.695 88.625 107.219C88.5384 108.204 88.0998 110.574 89.2188 111.281C89.9547 111.747 90.6226 110.694 90.9062 110.188C91.3883 109.326 91.5868 108.317 91.8438 107.375C92.0844 106.492 92.4372 105.581 92.4375 104.656C92.438 103.178 91.5545 101.786 90.8125 100.562C90.6667 100.322 90.5303 100.047 90.375 99.8125C90.4385 99.4796 90.4923 99.144 90.5625 98.8125C91.3095 98.0883 92.2467 97.778 93.25 97.5C93.7356 97.3655 94.341 97.2222 94.7812 96.9375C96.0462 96.1196 97.0454 94.8631 98.0312 93.75C98.7725 92.9131 99.539 92.1164 100.344 91.3438C99.9516 91.9587 99.1333 93.3421 99.9375 93.8125C100.41 94.0886 101.054 93.4259 101.312 93.125C102.181 92.1147 102.693 91.1187 103.156 89.875C103.174 89.8261 103.218 89.6661 103.25 89.5312C103.252 90.2199 103.093 91.5262 104 91.6562C104.69 91.7552 105.53 90.2108 105.875 89.7188C106.073 89.4359 106.269 89.1567 106.469 88.875C106.665 88.5982 106.862 88.3363 107.062 88.0625C107.262 87.7905 107.454 87.5199 107.656 87.25C107.739 87.1395 107.704 86.9891 107.594 86.9062C107.483 86.8234 107.333 86.827 107.25 86.9375C107.047 87.2088 106.857 87.4765 106.656 87.75C106.454 88.0259 106.26 88.3148 106.062 88.5938C105.862 88.8763 105.636 89.1539 105.438 89.4375C105.103 89.9144 104.798 90.3956 104.469 90.875C104.396 90.9805 104.255 91.1886 104.094 91.1562C103.792 91.096 103.752 90.5663 103.75 90.3438C103.746 89.984 103.712 89.5742 103.75 89.2188C103.775 88.9896 103.878 88.7639 103.875 88.5312C103.872 88.3525 103.777 88.251 103.656 88.1875C103.837 88.0006 104.024 87.8264 104.188 87.625C104.226 87.5777 104.274 87.3421 104.25 87.3125C104.253 87.3114 104.251 87.2847 104.25 87.2812C104.241 87.2846 104.228 87.2779 104.219 87.2812C104.192 87.2394 104.111 87.1631 104.094 87.1562C104.059 87.1423 104.038 87.1234 104 87.125C103.675 87.1389 103.337 87.5046 103.125 87.6875C102.708 88.0468 102.402 88.5377 102.062 89C101.424 89.5945 100.811 90.22 100.188 90.8125C99.0426 91.8999 97.9848 93.0399 96.9375 94.2188C96.3635 94.8649 95.7883 95.5063 95.125 96.0625C94.9248 96.2304 94.755 96.4743 94.5 96.5312C94.0302 96.6362 93.5936 96.9016 93.125 97.0312C92.4036 97.2307 91.4853 97.608 90.7188 98.125C90.8864 97.3908 90.9437 96.6298 91.1562 95.9062C91.6121 95.5645 92.1377 95.3295 92.5625 94.9375C94.4824 93.1656 95.8847 90.7413 97.1875 88.5C98.4101 86.3967 99.3516 84.242 99.9375 81.875C100.048 81.4269 100.311 80.4618 99.75 80.1875ZM99.5312 80.625C99.7084 80.9027 99.538 81.4708 99.4688 81.75C99.3848 82.0887 99.284 82.4147 99.1875 82.75C98.6276 84.695 97.7637 86.5061 96.75 88.25C95.4729 90.447 94.1013 92.8255 92.2188 94.5625C91.9916 94.7721 91.7063 94.899 91.4688 95.0938C92.2143 92.8066 93.1512 90.5698 94.1875 88.4062C95.2616 86.1636 96.4301 84.0473 97.9062 82.0312C98.2525 81.5584 98.6526 81.0948 99.1562 80.7812C99.2688 80.7112 99.4599 80.5132 99.5312 80.625ZM102.969 88.875C102.94 89.061 102.869 89.2136 102.812 89.375C102.54 90.1463 102.297 90.9694 101.844 91.6562C101.536 92.122 101.166 92.5628 100.781 92.9688C100.641 93.1172 100.53 93.2269 100.344 93.3125C100.288 93.3379 100.105 93.3425 100.156 93.375C100.226 93.419 100.125 92.7725 100.188 92.5625C100.31 92.1492 100.669 91.6954 100.906 91.3438C101.327 90.7214 101.814 90.1343 102.281 89.5312C102.512 89.3142 102.736 89.0902 102.969 88.875ZM90.25 100.469C90.4081 100.712 90.4937 101.012 90.5625 101.125C91.2435 102.241 92.0476 103.644 91.9062 105C91.8262 105.768 91.5458 106.509 91.3438 107.25C91.0982 108.151 90.9302 109.114 90.4688 109.938C90.391 110.076 89.8094 111.093 89.4688 110.875C88.7201 110.395 88.9954 108.531 89.0625 107.875C89.083 107.674 89.1073 107.483 89.125 107.281C89.1702 106.767 89.1839 106.605 89.25 106.094C89.3242 105.52 89.3892 104.948 89.4688 104.375C89.6511 103.062 90.0161 101.775 90.25 100.469Z" fill="#03070a" stroke="none"/>
</g>
</g>
</g>
</svg>
